<svg width="823" height="614" viewBox="0 0 823 614" fill="none" xmlns="http://www.w3.org/2000/svg">
<g clip-path="url(#clip0)">
<path d="M274.627 285.709C274.627 285.709 264.218 333.537 285.037 325.035C305.855 316.532 293.364 283.584 293.364 283.584L274.627 285.709Z" fill="#FFB9B9"/>
<path d="M469.281 301.652C469.281 301.652 494.264 332.474 478.65 338.851C463.036 345.228 454.708 310.155 456.79 306.966C458.872 303.778 469.281 301.652 469.281 301.652Z" fill="#FFB9B9"/>
<path d="M409.948 83.7702C427.195 83.7702 441.176 69.4947 441.176 51.885C441.176 34.2753 427.195 19.9998 409.948 19.9998C392.702 19.9998 378.72 34.2753 378.72 51.885C378.72 69.4947 392.702 83.7702 409.948 83.7702Z" fill="#FFB9B9"/>
<path d="M386.528 64.108L382.364 97.0558L416.714 109.81L424.001 72.6102L386.528 64.108Z" fill="#FFB9B9"/>
<path d="M405.785 96.5242C405.785 96.5242 388.138 87.6293 384.47 80.3855L376.639 88.0215C376.639 88.0215 320.428 82.7073 312.101 111.404C303.773 140.101 311.06 244.259 311.06 244.259C311.06 244.259 299.61 291.024 302.732 292.086C305.855 293.149 344.37 312.28 398.498 301.652C398.498 301.652 422.44 297.401 426.603 300.589C430.767 303.778 424.521 249.573 424.521 249.573C424.521 249.573 466.159 153.917 458.872 142.226C451.586 130.535 419.317 106.09 419.317 106.09L421.399 94.3985C421.399 94.3985 406.826 100.776 405.785 96.5242Z" fill="#CFCCE0"/>
<path d="M320.428 103.964C320.428 103.964 301.692 113.53 298.569 128.409C295.446 143.289 266.3 266.578 269.423 274.018C272.545 281.458 271.505 291.024 271.505 291.024L298.569 287.835C298.569 287.835 293.364 280.395 296.487 277.207C299.61 274.018 302.732 263.39 300.651 259.139C298.569 254.887 296.487 262.327 307.937 248.51C319.387 234.693 345.411 108.215 320.428 103.964Z" fill="#CFCCE0"/>
<path d="M452.627 140.101C452.627 140.101 461.474 140.632 463.556 155.512C465.638 170.392 469.281 262.327 469.281 262.327C469.281 262.327 482.814 292.086 477.609 296.338C472.404 300.589 475.527 306.966 475.527 306.966L456.79 312.28L416.194 247.447L452.627 140.101Z" fill="#CFCCE0"/>
<path d="M305.855 287.835C305.855 287.835 299.61 288.898 299.61 312.28C299.61 335.663 288.159 407.936 295.446 419.627C302.732 431.318 303.773 536.539 303.773 536.539C303.773 536.539 323.551 545.042 340.206 517.408L342.288 502.529L346.452 430.256L363.106 339.914L386.007 439.821C386.007 439.821 382.884 559.922 394.334 559.922C405.785 559.922 427.644 550.356 427.644 550.356C427.644 550.356 432.849 539.728 430.767 534.414C428.685 529.1 426.603 530.162 428.685 525.911C430.767 521.66 433.89 411.124 433.89 411.124C433.89 411.124 429.726 297.401 424.521 294.212C419.317 291.024 305.855 287.835 305.855 287.835Z" fill="#2F2E41"/>
<path d="M305.855 532.288L289.2 550.356C289.2 550.356 259.013 579.053 285.037 580.116C311.06 581.179 325.633 563.11 325.633 560.985C325.633 558.859 326.674 551.419 333.96 551.419C341.247 551.419 358.943 533.351 354.779 525.911C350.615 518.471 338.124 515.283 338.124 515.283L305.855 532.288Z" fill="#2F2E41"/>
<path d="M395.375 555.67C395.375 555.67 382.884 581.179 390.171 586.493C397.457 591.807 399.539 593.933 399.539 593.933C399.539 593.933 405.785 592.87 404.744 602.435C403.703 612.001 442.217 617.315 444.299 609.875C446.381 602.435 445.34 587.556 441.176 583.304C437.013 579.053 424.521 549.293 424.521 549.293C424.521 549.293 410.989 533.351 395.375 555.67Z" fill="#2F2E41"/>
<path d="M441.465 26.2821L447.347 25.4288C447.347 25.4288 439.158 10.0385 423.308 7.24393L428.871 3.40962C428.871 3.40962 419.203 -3.64528 406.708 5.42291C400.14 10.1898 392.513 15.8167 386.904 22.8991L381.165 21.4672L382.271 27.4494L372.6 30.7422L381.435 31.9221C380.217 34.7428 379.418 37.7335 379.064 40.7952C378.721 43.8606 379.559 46.942 381.399 49.389C381.399 49.389 391.406 37.0024 391.93 34.8121L390.62 40.2879C390.62 40.2879 397.158 36.6968 397.944 33.4113L399.95 37.9737L402.853 32.3149L419.435 42.8359L417.691 37.1783L428.502 41.6169L425.56 34.4993C425.56 34.4993 436.521 44.7784 435.567 50.9235C434.612 57.0685 436.953 63.7011 436.953 63.7011C436.953 63.7011 453.625 38.021 441.465 26.2821Z" fill="#2F2E41"/>
<path d="M646.059 377.162L478.538 315.728L508.445 230.704L612.752 204.585L675.968 292.138L646.059 377.162Z" fill="#2F2E41"/>
<path d="M625.765 360.302L500.576 311.576C533.075 267.127 547.608 235.773 547.619 186.435L672.809 235.161C643.725 277.344 631.562 309.055 625.765 360.302Z" fill="#F2F2F2"/>
<path d="M635.619 241.829L570.762 216.585L569.612 219.665L634.469 244.909L635.619 241.829Z" fill="#3F3D56"/>
<path d="M631.019 254.149L566.162 228.906L565.012 231.986L629.869 257.229L631.019 254.149Z" fill="#3F3D56"/>
<path d="M626.419 266.47L561.562 241.226L560.412 244.306L625.27 269.55L626.419 266.47Z" fill="#3F3D56"/>
<path d="M621.82 278.79L556.963 253.547L555.813 256.627L620.67 281.87L621.82 278.79Z" fill="#3F3D56"/>
<path d="M617.22 291.111L552.363 265.867L551.213 268.947L616.07 294.191L617.22 291.111Z" fill="#3F3D56"/>
<path d="M612.621 303.431L547.763 278.187L546.613 281.267L611.471 306.511L612.621 303.431Z" fill="#3F3D56"/>
<path d="M608.021 315.751L543.164 290.508L542.014 293.588L606.871 318.832L608.021 315.751Z" fill="#3F3D56"/>
<path d="M603.421 328.072L538.564 302.828L537.414 305.908L602.271 331.152L603.421 328.072Z" fill="#3F3D56"/>
<path d="M642.189 388.165L474.667 326.731L508.445 230.704L579.188 298.431L675.968 292.138L642.189 388.165Z" fill="#3F3D56"/>
<path d="M557.069 357.907L473.539 327.274L493.892 269.411L495.553 270.02L475.796 326.187L557.666 356.211L557.069 357.907Z" fill="#6DD5FA"/>
<path d="M527.378 296.37L502.886 287.389L499.368 297.392L523.859 306.373L527.378 296.37Z" fill="#6DD5FA"/>
<path d="M250.464 579.053L119.35 578.982L120.38 503.825L185.54 533.728L251.493 505.697L250.464 579.053Z" fill="#3F3D56"/>
<path d="M148.958 544.951L129.79 544.678L129.682 552.507L148.851 552.78L148.958 544.951Z" fill="#6DD5FA"/>
<path d="M251.932 505.595L185.659 540.092L120.035 505.595V503.604H251.932V505.595Z" fill="#6DD5FA"/>
<path d="M632.921 221.129C634.488 216.932 626.533 209.94 615.154 205.511C603.775 201.082 593.28 200.894 591.714 205.09C590.147 209.287 598.102 216.279 609.481 220.708C620.86 225.137 631.354 225.325 632.921 221.129Z" fill="#6DD5FA"/>
<path d="M650.929 103.15C646.726 101.816 642.307 101.34 637.924 101.749C633.541 102.158 629.279 103.445 625.384 105.536C621.488 107.627 618.033 110.481 615.217 113.935C612.402 117.389 610.28 121.376 608.973 125.667C603.477 143.714 618.455 209.783 618.455 209.783C618.455 209.783 667.485 164.036 672.981 145.989C675.621 137.322 674.78 127.94 670.644 119.906C666.509 111.872 659.417 105.845 650.929 103.15V103.15ZM636.263 151.307C633.265 150.355 630.61 148.517 628.635 146.024C626.66 143.532 625.453 140.497 625.167 137.305C624.881 134.112 625.529 130.904 627.028 128.087C628.528 125.271 630.811 122.971 633.591 121.479C636.37 119.988 639.52 119.371 642.643 119.707C645.766 120.044 648.72 121.318 651.134 123.369C653.547 125.42 655.311 128.156 656.201 131.23C657.092 134.305 657.069 137.58 656.137 140.641C655.518 142.674 654.513 144.562 653.179 146.198C651.845 147.834 650.209 149.186 648.364 150.177C646.518 151.167 644.5 151.777 642.424 151.97C640.347 152.164 638.254 151.939 636.263 151.307V151.307Z" fill="#6DD5FA"/>
</g>
<defs>
<clipPath id="clip0">
<rect width="822.138" height="612.585" fill="white" transform="translate(0.592957 0.795166)"/>
</clipPath>
</defs>
</svg>
